<svg version="1.1" id="Layer_1" xmlns="http://www.w3.org/2000/svg" xmlns:xlink="http://www.w3.org/1999/xlink" x="0px" y="0px"
	 width="100%" viewBox="0 0 447 446" enable-background="new 0 0 447 446" xml:space="preserve">
<path fill="currentcolor" opacity="1.000000" stroke="none" 
	d="
M295.999756,428.634491 
	C203.369675,428.634491 111.239632,428.634491 18.723047,428.634491 
	C18.723047,291.683411 18.723047,155.009521 18.723047,17.637791 
	C156.111771,17.637791 293.466827,17.637791 430.753174,17.637791 
	C430.753174,154.243591 430.753174,291.121582 430.753174,428.634491 
	C385.689972,428.634491 341.094879,428.634491 295.999756,428.634491 
M265.454132,191.372009 
	C234.505264,191.372009 203.556396,191.372009 172.053986,191.372009 
	C172.053986,206.091461 172.053986,220.304779 172.053986,234.898315 
	C154.422073,234.898315 137.342194,234.898315 120.199295,234.898315 
	C120.199295,279.181030 120.199295,323.066925 120.199295,366.866516 
	C137.228149,366.866516 153.958923,366.866516 171.072144,366.866516 
	C171.072144,351.643250 171.072144,336.720764 171.072144,321.709167 
	C207.199158,321.709167 242.938324,321.709167 279.562500,321.709167 
	C279.562500,337.403625 279.562500,352.788116 279.562500,368.193848 
	C296.869263,368.193848 313.289368,368.193848 329.847473,368.193848 
	C329.847473,323.079590 329.847473,278.187317 329.847473,232.761505 
	C312.042236,232.761505 294.492462,232.761505 276.619598,232.761505 
	C276.619598,218.785156 276.619598,205.339645 276.619598,191.372025 
	C273.013611,191.372025 269.723755,191.372025 265.454132,191.372009 
M328.500244,100.403061 
	C312.217194,100.403061 295.934113,100.403061 279.553955,100.403061 
	C279.553955,129.830505 279.553955,158.698486 279.553955,187.616837 
	C314.463348,187.616837 349.041321,187.616837 383.715729,187.616837 
	C383.715729,158.491180 383.715729,129.626038 383.715729,100.403069 
	C365.436493,100.403069 347.468384,100.403069 328.500244,100.403061 
M114.487442,101.092827 
	C98.741997,101.092827 82.996552,101.092827 67.266357,101.092827 
	C67.266357,129.829987 67.266357,158.572037 67.266357,187.528381 
	C101.705307,187.528381 135.903351,187.528381 170.534637,187.528381 
	C170.534637,159.052475 170.534637,130.848404 170.534637,102.214722 
	C151.996597,101.836868 133.739090,101.464737 114.487442,101.092827 
z"/>
</svg>